<svg width="52" height="52" viewBox="0 0 52 52" fill="none" xmlns="http://www.w3.org/2000/svg">
<rect width="52" height="52" fill="black"/>
<path d="M27.4375 18.3999V17.2381C27.4375 14.1633 27.4375 12.6258 28.3558 11.5628C29.2741 10.4998 30.8206 10.247 33.9134 9.74151L38.4795 8.99523C38.7426 8.95222 38.8742 8.93071 38.9453 9.00612C39.0162 9.08153 38.9838 9.20841 38.9191 9.46221L37.1845 16.2666C37.1556 16.38 37.1411 16.4367 37.1004 16.4747C37.0599 16.5127 37.0014 16.5242 36.8846 16.5471L27.4375 18.3999V29.7999V35.0308C27.4375 38.5551 24.7614 41.5281 21.1953 41.9651L20.1149 42.0975C15.9965 42.6023 12.516 39.1288 13.103 35.0996C13.546 32.0587 16.2017 29.7999 19.3342 29.7999H27.4375V18.3999Z" fill="#7E869E" fill-opacity="0.25"/>
<path d="M27.4375 29.7999H19.3342C16.2017 29.7999 13.546 32.0587 13.103 35.0996C12.516 39.1288 15.9965 42.6023 20.1149 42.0975L21.1953 41.9651C24.7614 41.5281 27.4375 38.5551 27.4375 35.0308V17.2381C27.4375 14.1633 27.4375 12.6258 28.3558 11.5628C29.2741 10.4998 30.8206 10.247 33.9134 9.74151L38.4795 8.99523C38.7426 8.95222 38.8742 8.93071 38.9453 9.00612C39.0162 9.08153 38.9838 9.20843 38.9191 9.46221L37.1845 16.2666C37.1556 16.38 37.1411 16.4367 37.1004 16.4747C37.0599 16.5127 37.0014 16.5242 36.8846 16.5471L27.4375 18.3999" stroke="white" stroke-width="1.2"/>
</svg>
