<svg width="20" height="20" viewBox="0 0 20 20" fill="none" xmlns="http://www.w3.org/2000/svg">
<path fill-rule="evenodd" clip-rule="evenodd" d="M4 2H16C17.1046 2 18 2.89543 18 4V12C18 13.1046 17.1046 14 16 14H13.3282L14.0141 13.3142C14.4401 12.8881 14.4401 12.1974 14.0141 11.7714C13.588 11.3454 12.8973 11.3454 12.4713 11.7714L9.35359 14.8891C9.15833 15.0843 9.15833 15.4009 9.35359 15.5962L12.4713 18.7139C12.8973 19.1399 13.588 19.1399 14.0141 18.7139C14.4401 18.2879 14.4401 17.5971 14.0141 17.1711L12.843 16H16C18.2091 16 20 14.2091 20 12V4C20 1.79086 18.2091 0 16 0H4C1.79086 0 0 1.79086 0 4V12C0 14.2091 1.79086 16 4 16H6V14H4C2.89543 14 2 13.1046 2 12V4C2 2.89543 2.89543 2 4 2ZM10.002 12H11.058V4.872H10.112C10.0313 5.268 9.826 5.59067 9.496 5.84C9.166 6.082 8.759 6.20667 8.275 6.214V6.973H10.002V12Z" fill="#D9D9D9"/>
</svg>
