<svg width="52" height="52" viewBox="0 0 52 52" fill="none" xmlns="http://www.w3.org/2000/svg">
<path d="M32.7485 10.9624L32.712 10.9989L11.2679 32.4429L11.2679 32.4429L11.975 33.1501L11.2679 32.443C11.2548 32.456 11.2414 32.4694 11.2276 32.4831C11.0754 32.6344 10.8828 32.8258 10.7459 33.0676C10.609 33.3094 10.5439 33.573 10.4925 33.7813C10.4879 33.8002 10.4833 33.8187 10.4788 33.8366L8.23197 42.8241C8.22917 42.8353 8.22625 42.8469 8.22323 42.8589C8.18641 43.0054 8.1354 43.2083 8.11783 43.3879C8.09762 43.5946 8.09093 44.0466 8.45972 44.4154C8.82848 44.7841 9.28044 44.7775 9.48714 44.7572C9.66673 44.7397 9.86962 44.6887 10.0161 44.6519C10.0281 44.6488 10.0398 44.6459 10.051 44.6431L19.0384 42.3962C19.0564 42.3918 19.0748 42.3872 19.0937 42.3825C19.302 42.3311 19.5657 42.2661 19.8075 42.1292L19.3148 41.259L19.8075 42.1292C20.0492 41.9923 20.2407 41.7997 20.3919 41.6475C20.4057 41.6337 20.4191 41.6202 20.4322 41.6071L41.8762 20.1631L41.9147 20.1246C42.2146 19.8248 42.5061 19.5334 42.7141 19.2608C42.9487 18.9534 43.1691 18.5554 43.1691 18.0417C43.1691 17.5281 42.9487 17.1301 42.7141 16.8227C42.5061 16.5501 42.2146 16.2587 41.9147 15.9589L41.8762 15.9204L36.9547 10.9989L36.2475 11.706L36.9547 10.9989L36.9162 10.9604C36.6164 10.6605 36.325 10.369 36.0523 10.1609C35.745 9.92641 35.347 9.70596 34.8333 9.70596C34.3197 9.70596 33.9217 9.9264 33.6143 10.1609C33.3417 10.369 33.0503 10.6604 32.7505 10.9604L32.7485 10.9624Z" stroke="white" stroke-width="2"/>
<path d="M28.4434 14.1667L36.1934 9L43.9434 16.75L38.7767 24.5L28.4434 14.1667Z" fill="white"/>
</svg>
