<svg width="32" height="28" viewBox="0 0 32 28" fill="none" xmlns="http://www.w3.org/2000/svg">
<path d="M16.7618 14L17.5263 14.8672L18.4702 14L17.5263 13.1329L16.7618 14ZM1.52372 12.8334C0.892535 12.8334 0.380859 13.3557 0.380859 14C0.380859 14.6444 0.892535 15.1667 1.52372 15.1667V12.8334ZM10.7539 21.0895L17.5263 14.8672L15.9973 13.1329L9.22479 19.355L10.7539 21.0895ZM17.5263 13.1329L10.7539 6.91064L9.22479 8.645L15.9973 14.8672L17.5263 13.1329ZM16.7618 12.8334H1.52372V15.1667H16.7618V12.8334Z" fill="white"/>
<path d="M12.1904 24.7773C14.0436 25.8695 16.1458 26.4446 18.2857 26.4446C20.4256 26.4446 22.5276 25.8695 24.3809 24.7773C26.2342 23.6852 27.7731 22.1142 28.8429 20.2223C29.9128 18.3305 30.4761 16.1846 30.4761 14.0001C30.4761 11.8157 29.9128 9.66967 28.8429 7.77789C27.7731 5.8861 26.2342 4.31513 24.3809 3.22291C22.5276 2.13068 20.4256 1.55566 18.2857 1.55566C16.1458 1.55566 14.0436 2.13068 12.1904 3.22291" stroke="white" stroke-width="3"/>
</svg>
