<svg width="19" height="18" viewBox="0 0 19 18" fill="none" xmlns="http://www.w3.org/2000/svg">
<path d="M12.7886 10.8337C12.7886 12.6501 11.3161 14.1225 9.4997 14.1225C7.68331 14.1225 6.21084 12.6501 6.21084 10.8337C6.21084 9.0173 7.68331 7.54482 9.4997 7.54482C11.3161 7.54482 12.7886 9.0173 12.7886 10.8337Z" fill="#7E869E" fill-opacity="0.25" stroke="white" stroke-width="1.2"/>
<path d="M17.4364 9.768C17.8253 10.2383 18.0197 10.4734 18.0197 10.8333C18.0197 11.1932 17.8252 11.4283 17.4364 11.8986C16.0446 13.5816 13.0142 16.6666 9.49994 16.6666C5.98564 16.6666 2.95524 13.5816 1.5635 11.8986C1.17463 11.4283 0.980191 11.1932 0.980191 10.8333C0.980191 10.4734 1.17463 10.2383 1.5635 9.768C2.95524 8.085 5.98564 5 9.49994 5C13.0142 5 16.0446 8.085 17.4364 9.768Z" stroke="white" stroke-width="1.2"/>
</svg>
