<svg width="19" height="18" viewBox="0 0 19 18" fill="none" xmlns="http://www.w3.org/2000/svg">
<path fill-rule="evenodd" clip-rule="evenodd" d="M13.2903 11.7988C13.3427 11.5407 13.3701 11.2736 13.3701 11C13.3701 8.79086 11.5793 7 9.37012 7C9.09656 7 8.82942 7.02746 8.5713 7.07977L13.2903 11.7988ZM6.03688 8.78799C5.61559 9.42156 5.37012 10.1821 5.37012 11C5.37012 13.2091 7.16098 15 9.37012 15C10.188 15 10.9486 14.7545 11.5821 14.3332L6.03688 8.78799Z" fill="#7E869E" fill-opacity="0.25"/>
<path fill-rule="evenodd" clip-rule="evenodd" d="M13.2903 11.7988C13.3427 11.5407 13.3701 11.2736 13.3701 11C13.3701 8.79086 11.5793 7 9.37012 7C9.09656 7 8.82942 7.02746 8.5713 7.07977L9.71222 8.22069C10.9851 8.37575 11.9944 9.38499 12.1494 10.6579L13.2903 11.7988ZM6.91024 9.66135C6.69336 10.059 6.57012 10.5151 6.57012 11C6.57012 12.5464 7.82372 13.8 9.37012 13.8C9.85499 13.8 10.3111 13.6768 10.7088 13.4599L11.5821 14.3332C10.9486 14.7545 10.188 15 9.37012 15C7.16098 15 5.37012 13.2091 5.37012 11C5.37012 10.1821 5.61559 9.42156 6.03688 8.78799L6.91024 9.66135Z" fill="white"/>
<path fill-rule="evenodd" clip-rule="evenodd" d="M13.5972 16.3481L12.7158 15.4668C11.6698 16.0319 10.5385 16.3999 9.37027 16.3999C7.72765 16.3999 6.15802 15.6723 4.7958 14.6923C3.43832 13.7156 2.33753 12.5245 1.64537 11.6842C1.44029 11.4352 1.3293 11.298 1.26084 11.1832C1.20776 11.0942 1.2 11.0507 1.2 10.9999C1.2 10.9491 1.20776 10.9056 1.26084 10.8166C1.3293 10.7018 1.44029 10.5646 1.64537 10.3156C2.31386 9.50403 3.36353 8.36522 4.65748 7.40844L3.80027 6.55123C2.46544 7.56374 1.39781 8.72872 0.719112 9.55273L0.655581 9.62954C0.329963 10.0224 0 10.4205 0 10.9999C0 11.5793 0.329962 11.9774 0.655579 12.3703L0.719112 12.4471C1.44705 13.3309 2.62241 14.6069 4.09498 15.6664C5.56282 16.7224 7.37717 17.5999 9.37027 17.5999C10.9121 17.5999 12.3469 17.0748 13.5972 16.3481ZM6.48329 4.9916C7.38432 4.62802 8.35406 4.3999 9.37027 4.3999C11.3634 4.3999 13.1777 5.2774 14.6456 6.33344C16.1181 7.3929 17.2935 8.66894 18.0214 9.55273L18.085 9.62955C18.4106 10.0224 18.7405 10.4205 18.7405 10.9999C18.7405 11.5793 18.4106 11.9774 18.085 12.3703L18.0214 12.4471C17.5397 13.0319 16.8621 13.7885 16.0321 14.5404L15.1825 13.6908C15.975 12.978 16.6281 12.2512 17.0952 11.6842C17.3003 11.4352 17.4112 11.298 17.4797 11.1832C17.5328 11.0942 17.5405 11.0507 17.5405 10.9999C17.5405 10.9491 17.5328 10.9056 17.4797 10.8166C17.4112 10.7018 17.3003 10.5646 17.0952 10.3156C16.403 9.4753 15.3022 8.28419 13.9447 7.30754C12.5825 6.32748 11.0129 5.5999 9.37027 5.5999C8.70467 5.5999 8.05105 5.71936 7.41836 5.92668L6.48329 4.9916Z" fill="white"/>
<path d="M2.37012 1L18.3701 17" stroke="white" stroke-width="1.2"/>
</svg>
