<svg width="24" height="24" viewBox="0 0 24 24" fill="none" xmlns="http://www.w3.org/2000/svg">
<rect width="24" height="24" fill="black"/>
<path d="M6.69419 19.4612L6.99029 19.4019C7.37076 19.3258 7.56099 19.2878 7.7215 19.2257C8.3765 18.9724 8.85063 18.394 8.9706 17.7021C9 17.5325 9 17.3385 9 16.9505V15H6.25245C6.018 15 5.90078 15 5.80205 15.0098C4.85403 15.1041 4.10411 15.854 4.00982 16.802C4 16.9008 4 17.018 4 17.2525C4 17.5322 4 17.6721 4.01244 17.7831C4.13321 18.8608 5.0909 19.646 6.17139 19.553C6.28269 19.5435 6.41986 19.516 6.69419 19.4612Z" fill="#7E869E" fill-opacity="0.25"/>
<path d="M16.6942 17.4612L16.9903 17.4019C17.3708 17.3258 17.561 17.2878 17.7215 17.2257C18.3765 16.9724 18.8506 16.394 18.9706 15.7021C19 15.5325 19 15.3385 19 14.9505V13H16.2525C16.018 13 15.9008 13 15.802 13.0098C14.854 13.1041 14.1041 13.854 14.0098 14.802C14 14.9008 14 15.018 14 15.2525C14 15.5322 14 15.6721 14.0124 15.7831C14.1332 16.8608 15.0909 17.646 16.1714 17.553C16.2827 17.5435 16.4199 17.516 16.6942 17.4612Z" fill="#7E869E" fill-opacity="0.25"/>
<path d="M6.69419 19.4612L6.99029 19.4019C7.37076 19.3258 7.56099 19.2878 7.7215 19.2257C8.3765 18.9724 8.85063 18.394 8.9706 17.7021C9 17.5325 9 17.3385 9 16.9505V15H6.25245C6.018 15 5.90078 15 5.80205 15.0098C4.85403 15.1041 4.10411 15.854 4.00982 16.802C4 16.9008 4 17.018 4 17.2525C4 17.5322 4 17.6721 4.01244 17.7831C4.13321 18.8608 5.0909 19.646 6.17139 19.553C6.28269 19.5435 6.41986 19.516 6.69419 19.4612Z" stroke="white" stroke-width="1.2"/>
<path d="M16.6942 17.4612L16.9903 17.4019C17.3708 17.3258 17.561 17.2878 17.7215 17.2257C18.3765 16.9724 18.8506 16.394 18.9706 15.7021C19 15.5325 19 15.3385 19 14.9505V13H16.2525C16.018 13 15.9008 13 15.802 13.0098C14.854 13.1041 14.1041 13.854 14.0098 14.802C14 14.9008 14 15.018 14 15.2525C14 15.5322 14 15.6721 14.0124 15.7831C14.1332 16.8608 15.0909 17.646 16.1714 17.553C16.2827 17.5435 16.4199 17.516 16.6942 17.4612Z" stroke="white" stroke-width="1.2"/>
<path d="M9 15H6.25245C6.018 15 5.90078 15 5.80205 15.0098C4.85403 15.1041 4.10411 15.854 4.00982 16.802C4 16.9008 4 17.018 4 17.2525V17.2525C4 17.5322 4 17.6721 4.01244 17.7831C4.13321 18.8608 5.0909 19.646 6.17139 19.553C6.28269 19.5435 6.41986 19.516 6.69419 19.4612L6.99029 19.4019C7.37076 19.3258 7.56099 19.2878 7.7215 19.2257C8.3765 18.9724 8.85063 18.394 8.9706 17.7021C9 17.5325 9 17.3385 9 16.9505V8.27922C9 6.70946 9 5.92459 9.45332 5.37163C9.90663 4.81867 10.6763 4.66475 12.2155 4.35689L14.2155 3.95689C16.4291 3.51417 17.536 3.29281 18.268 3.89292C19 4.49304 19 5.62176 19 7.87922V8M19 13V14.9505C19 15.3385 19 15.5325 18.9706 15.7021C18.8506 16.394 18.3765 16.9724 17.7215 17.2257C17.561 17.2878 17.3708 17.3258 16.9903 17.4019L16.6942 17.4612C16.4199 17.516 16.2827 17.5435 16.1714 17.553C15.0909 17.646 14.1332 16.8608 14.0124 15.7831C14 15.6721 14 15.5322 14 15.2525V15.2525C14 15.018 14 14.9008 14.0098 14.802C14.1041 13.854 14.854 13.1041 15.802 13.0098C15.9008 13 16.018 13 16.2525 13H19ZM19 13V8M19 8L9 10" stroke="white" stroke-width="1.2"/>
</svg>
