<svg width="27" height="33" viewBox="0 0 27 33" fill="none" xmlns="http://www.w3.org/2000/svg">
<path fill-rule="evenodd" clip-rule="evenodd" d="M4.58353 28.4165L4.58353 33L6.08353 33L6.08353 28.4165H10.6664V26.9165H6.08353L6.08353 22.3333L4.58353 22.3333L4.58353 26.9165H0V28.4165H4.58353Z" fill="white"/>
<path d="M8.53328 18.7498C7.71066 15.9334 4.2666 14.5112 4.2666 9.23911C4.2666 3.96706 8.53328 1 12.0886 1C16.6806 1 20.4032 4.68877 20.4032 9.23911C20.4032 11.7032 18.7287 15.0698 16.7057 17.1599C15.8947 17.9978 15.8348 19.5772 16.8029 20.2274L24.1739 25.1779C24.8246 25.7018 25.5998 26.9807 25.5998 27.8064V30.8668H12.0886" stroke="white" stroke-width="1.5"/>
</svg>
