<svg width="21" height="18" viewBox="0 0 21 18" fill="none" xmlns="http://www.w3.org/2000/svg">
<path d="M8 15.9282C9.21615 16.6303 10.5957 17 12 17C13.4043 17 14.7838 16.6303 16 15.9282C17.2162 15.2261 18.2261 14.2162 18.9282 13C19.6303 11.7838 20 10.4043 20 9C20 7.59571 19.6303 6.21615 18.9282 5C18.2261 3.78385 17.2162 2.77394 16 2.0718C14.7838 1.36965 13.4043 1 12 1C10.5957 1 9.21615 1.36965 8 2.0718" stroke="white" stroke-width="2"/>
<path d="M2 9L1.21913 8.3753L0.719375 9L1.21913 9.6247L2 9ZM11 10C11.5523 10 12 9.55228 12 9C12 8.44772 11.5523 8 11 8V10ZM5.21913 3.3753L1.21913 8.3753L2.78087 9.6247L6.78087 4.6247L5.21913 3.3753ZM1.21913 9.6247L5.21913 14.6247L6.78087 13.3753L2.78087 8.3753L1.21913 9.6247ZM2 10H11V8H2V10Z" fill="white"/>
</svg>
