<svg width="637" height="637" viewBox="0 0 637 637" fill="none" xmlns="http://www.w3.org/2000/svg">
<rect width="637" height="637" fill="black"/>
<path d="M238.563 281.656L234.563 273.156C215.765 255.395 211.615 244.704 216.563 224.156C214.92 198.497 197.064 237.156 213.063 163.657C229.063 90.157 299.563 80.1575 343.563 105.657C405.563 89.6575 440.063 152.157 423.563 202.157L422.563 224.657C423.867 252.103 420.076 262.98 404.063 273.156C394.989 301.108 388.258 314.272 373.563 333.657C364.563 377.157 391.563 396.657 427.563 401.657C472.063 411.157 493.401 438.243 495.063 494.657C485.563 530.657 358.071 546.68 232.063 530.657M204.063 545.157V401.657M178.063 519.657C142.988 507.511 134.267 495.265 148.563 457.157" stroke="white" stroke-width="18"/>
<circle cx="257.063" cy="343.157" r="45" fill="white"/>
<path d="M214.563 353.157L151.563 425.157C151.563 437.657 158.063 445.657 174.563 448.657L244.563 386.657L214.563 353.157Z" fill="white" stroke="white"/>
</svg>
