<svg width="76" height="59" viewBox="0 0 76 59" fill="none" xmlns="http://www.w3.org/2000/svg">
<path d="M38.5252 25.2113C38.4627 25.1316 38.383 25.0671 38.292 25.0227C38.2009 24.9784 38.101 24.9553 37.9997 24.9553C37.8985 24.9553 37.7985 24.9784 37.7075 25.0227C37.6164 25.0671 37.5367 25.1316 37.4743 25.2113L28.1332 37.0294C28.0562 37.1278 28.0085 37.2458 27.9954 37.37C27.9823 37.4942 28.0044 37.6196 28.0592 37.7318C28.114 37.8441 28.1993 37.9386 28.3053 38.0046C28.4113 38.0707 28.5338 38.1056 28.6587 38.1053H34.8221V58.322C34.8221 58.689 35.1224 58.9892 35.4893 58.9892H40.4935C40.8604 58.9892 41.1607 58.689 41.1607 58.322V38.1137H47.3408C47.8996 38.1137 48.2082 37.4715 47.8662 37.0378L38.5252 25.2113Z" fill="white"/>
<path d="M62.9706 17.5132C59.1507 7.43818 49.4177 0.273926 38.0166 0.273926C26.6155 0.273926 16.8825 7.42984 13.0627 17.5048C5.9151 19.3814 0.635742 25.8951 0.635742 33.6348C0.635742 42.8508 8.10024 50.3153 17.3078 50.3153H20.6523C21.0192 50.3153 21.3195 50.015 21.3195 49.648V44.6439C21.3195 44.2769 21.0192 43.9767 20.6523 43.9767H17.3078C14.4972 43.9767 11.8533 42.8591 9.88505 40.8324C7.9251 38.8141 6.88257 36.0952 6.97431 33.2762C7.04937 31.0744 7.79999 29.006 9.15945 27.2629C10.5523 25.4864 12.5039 24.1937 14.6723 23.6182L17.8333 22.7925L18.9926 19.74C19.7098 17.8384 20.7107 16.062 21.97 14.4523C23.2133 12.8569 24.6861 11.4544 26.3403 10.2905C29.7681 7.88021 33.8048 6.60415 38.0166 6.60415C42.2284 6.60415 46.2651 7.88021 49.6929 10.2905C51.3526 11.4582 52.8205 12.8593 54.0632 14.4523C55.3226 16.062 56.3234 17.8468 57.0407 19.74L58.1916 22.7842L61.3442 23.6182C65.8646 24.8359 69.0256 28.9476 69.0256 33.6348C69.0256 36.3954 67.9497 38.9976 65.9981 40.9492C65.041 41.9119 63.9024 42.6752 62.6483 43.1948C61.3942 43.7145 60.0495 43.9803 58.692 43.9767H55.3476C54.9806 43.9767 54.6804 44.2769 54.6804 44.6439V49.648C54.6804 50.015 54.9806 50.3153 55.3476 50.3153H58.692C67.8996 50.3153 75.3641 42.8508 75.3641 33.6348C75.3641 25.9034 70.1015 19.3981 62.9706 17.5132Z" fill="white"/>
</svg>
