<svg width="52" height="52" viewBox="0 0 52 52" fill="none" xmlns="http://www.w3.org/2000/svg">
<path fill-rule="evenodd" clip-rule="evenodd" d="M23.0138 23.741C20.159 24.5373 17.8577 26.6636 16.8219 29.412L16.8076 29.4501L16.8076 29.4501C16.6674 29.8221 16.5395 30.1616 16.4115 30.427C16.2807 30.6979 16.0858 31.0351 15.7407 31.2738C15.4138 31.4999 15.0644 31.5717 14.7695 31.6017C14.5001 31.6291 14.1768 31.6291 13.8408 31.629L13.7995 31.629H13.1714H13.1714H13.1714H13.1714H13.1714H13.1714H13.1714H13.1714H13.1714H13.1714H13.1714H13.1713C10.3153 31.629 8 33.9443 8 36.8004C8 39.6564 10.3153 41.9717 13.1713 41.9717H13.1714H13.1714H13.1714H13.1714H13.1714H40.0282C41.685 41.9717 43.0282 40.6286 43.0282 38.9717V34.629C43.0282 32.9722 41.685 31.629 40.0282 31.629H37.2288L37.1875 31.629C36.8515 31.6291 36.5282 31.6291 36.2588 31.6017C35.9639 31.5717 35.6145 31.4999 35.2876 31.2738C34.9425 31.0351 34.7476 30.6979 34.6168 30.427C34.4888 30.1616 34.3609 29.8222 34.2207 29.4502L34.2064 29.412C33.1705 26.6634 30.8689 24.5369 28.0138 23.7408V21.6782C31.7335 22.5193 34.7553 25.1974 36.0779 28.7067C36.2372 29.1294 36.3338 29.383 36.4181 29.5578C36.4279 29.5781 36.4366 29.5954 36.4444 29.6101L36.4614 29.612C36.6169 29.6278 36.8359 29.629 37.2288 29.629H40.0282C42.7896 29.629 45.0282 31.8676 45.0282 34.629V38.9717C45.0282 41.7331 42.7896 43.9717 40.0282 43.9717H13.1714H13.1714H13.1714H13.1714H13.1714H13.1713C9.21072 43.9717 6 40.761 6 36.8004C6 32.8397 9.21072 29.629 13.1713 29.629H13.1713H13.1714H13.1714H13.1714H13.1714H13.1714H13.1714H13.1714H13.1714H13.1714H13.1714H13.1714H13.1714H13.1714H13.1714H13.1714H13.1714H13.1714H13.1714H13.1714H13.1714H13.1714H13.7995C14.1924 29.629 14.4114 29.6278 14.5669 29.612L14.5839 29.6101C14.5917 29.5954 14.6004 29.5781 14.6102 29.5578C14.6945 29.383 14.7911 29.1294 14.9504 28.7067C16.2729 25.1977 19.2944 22.5197 23.0138 21.6784V23.741Z" fill="#CCD2E3"/>
<path d="M25.5142 8L24.79 7.31034L25.5142 6.55L26.2383 7.31034L25.5142 8ZM26.5142 29C26.5142 29.5523 26.0664 30 25.5142 30C24.9619 30 24.5142 29.5523 24.5142 29L26.5142 29ZM16.79 15.7103L24.79 7.31034L26.2383 8.68965L18.2383 17.0897L16.79 15.7103ZM26.2383 7.31034L34.2383 15.7103L32.79 17.0897L24.79 8.68965L26.2383 7.31034ZM26.5142 8L26.5142 29L24.5142 29L24.5142 8L26.5142 8Z" fill="#CCD2E3"/>
</svg>
