<svg width="52" height="52" viewBox="0 0 52 52" fill="none" xmlns="http://www.w3.org/2000/svg">
<path fill-rule="evenodd" clip-rule="evenodd" d="M28.5587 23.1207V29.1773C28.5587 30.558 27.4394 31.6773 26.0587 31.6773C24.678 31.6773 23.5587 30.558 23.5587 29.1773V23.1206C19.9324 23.9983 17.0352 26.7428 15.9414 30.2795L15.9414 30.2796C15.8598 30.5434 15.819 30.6753 15.7777 30.7548C15.6234 31.0523 15.3978 31.2187 15.068 31.2782C14.9798 31.2942 14.8648 31.2942 14.6349 31.2942H13.3536L13.3535 31.2942L13.3535 31.2942H13.3528C9.84426 31.2942 7 34.1385 7 37.6471C7 41.1556 9.84426 43.9999 13.3528 43.9999L13.3777 43.9998H26.0277L26.0585 43.9999L26.0893 43.9998H41.1177C43.3268 43.9998 45.1177 42.209 45.1177 39.9998V35.2942C45.1177 33.085 43.3268 31.2942 41.1177 31.2942H38.0695C37.3245 31.2942 36.9519 31.2942 36.6946 31.1153C36.4372 30.9364 36.2869 30.532 35.9864 29.7234C34.7723 26.4569 31.9923 23.9519 28.5587 23.1207Z" fill="white"/>
<path d="M26.0578 8L25.3507 7.29289L26.0578 6.58579L26.7649 7.29289L26.0578 8ZM27.0578 29.1761C27.0578 29.7284 26.6101 30.1761 26.0578 30.1761C25.5056 30.1761 25.0578 29.7284 25.0578 29.1761L27.0578 29.1761ZM16.8803 15.7633L25.3507 7.29289L26.7649 8.70711L18.2945 17.1775L16.8803 15.7633ZM26.7649 7.29289L35.2354 15.7633L33.8212 17.1775L25.3507 8.70711L26.7649 7.29289ZM27.0578 8L27.0578 29.1761L25.0578 29.1761L25.0578 8L27.0578 8Z" fill="white"/>
</svg>
