<svg width="552" height="22" viewBox="0 0 552 22" fill="none" xmlns="http://www.w3.org/2000/svg">
<rect opacity="0.32" y="4" width="552" height="13" rx="6.5" fill="white"/>
<rect y="4" width="407" height="13" rx="6.5" fill="#63CF6C"/>
<path d="M427.736 6.224V7.352C427.536 7.512 427.34 7.684 427.148 7.868C426.956 8.052 426.7 8.348 426.38 8.756C426.068 9.164 425.792 9.596 425.552 10.052C425.312 10.508 425.084 11.088 424.868 11.792C424.66 12.488 424.52 13.224 424.448 14H423.236C423.284 13.384 423.38 12.788 423.524 12.212C423.668 11.628 423.836 11.12 424.028 10.688C424.22 10.256 424.424 9.852 424.64 9.476C424.864 9.092 425.08 8.772 425.288 8.516C425.504 8.252 425.696 8.028 425.864 7.844C426.04 7.66 426.18 7.524 426.284 7.436L426.44 7.304H422.06V6.224H427.736ZM431.581 10.388L431.005 9.416L433.297 7.304H429.577V6.224H434.857V7.28L432.637 9.332C433.269 9.332 433.825 9.54 434.305 9.956C434.793 10.372 435.037 10.952 435.037 11.696C435.037 12.384 434.785 12.972 434.281 13.46C433.777 13.948 433.089 14.192 432.217 14.192C431.361 14.192 430.673 13.956 430.153 13.484C429.641 13.004 429.365 12.424 429.325 11.744L430.477 11.48C430.501 11.984 430.673 12.392 430.993 12.704C431.321 13.008 431.725 13.16 432.205 13.16C432.717 13.16 433.117 13.024 433.405 12.752C433.701 12.472 433.849 12.128 433.849 11.72C433.849 11.248 433.693 10.888 433.381 10.64C433.069 10.392 432.697 10.268 432.265 10.268C432.033 10.268 431.805 10.308 431.581 10.388ZM438.396 7.352C438.22 7.528 438.132 7.752 438.132 8.024C438.132 8.296 438.22 8.524 438.396 8.708C438.572 8.884 438.792 8.972 439.056 8.972C439.32 8.972 439.54 8.884 439.716 8.708C439.892 8.524 439.98 8.296 439.98 8.024C439.98 7.752 439.892 7.528 439.716 7.352C439.54 7.176 439.32 7.088 439.056 7.088C438.792 7.088 438.572 7.176 438.396 7.352ZM437.136 8.024C437.136 7.504 437.324 7.06 437.7 6.692C438.084 6.324 438.536 6.14 439.056 6.14C439.576 6.14 440.028 6.324 440.412 6.692C440.796 7.06 440.988 7.504 440.988 8.024C440.988 8.552 440.796 9 440.412 9.368C440.028 9.736 439.576 9.92 439.056 9.92C438.536 9.92 438.084 9.736 437.7 9.368C437.324 9 437.136 8.552 437.136 8.024ZM443.148 11.528C442.972 11.704 442.884 11.928 442.884 12.2C442.884 12.472 442.972 12.7 443.148 12.884C443.324 13.06 443.544 13.148 443.808 13.148C444.072 13.148 444.292 13.06 444.468 12.884C444.644 12.7 444.732 12.472 444.732 12.2C444.732 11.928 444.644 11.704 444.468 11.528C444.292 11.352 444.072 11.264 443.808 11.264C443.544 11.264 443.324 11.352 443.148 11.528ZM441.888 12.2C441.888 11.68 442.076 11.236 442.452 10.868C442.836 10.5 443.288 10.316 443.808 10.316C444.328 10.316 444.78 10.5 445.164 10.868C445.548 11.236 445.74 11.68 445.74 12.2C445.74 12.728 445.548 13.176 445.164 13.544C444.78 13.912 444.328 14.096 443.808 14.096C443.288 14.096 442.836 13.912 442.452 13.544C442.076 13.176 441.888 12.728 441.888 12.2ZM439.2 14H438.096L443.688 6.224H444.768L439.2 14Z" fill="white"/>
<circle cx="403" cy="11" r="11" fill="white"/>
</svg>
