<svg width="552" height="37" viewBox="0 0 552 37" fill="none" xmlns="http://www.w3.org/2000/svg">
<rect opacity="0.32" y="6" width="552" height="26" rx="13" fill="white"/>
<rect y="6" width="407" height="26" rx="13" fill="#63CF6C"/>
<path d="M440.038 12.392V14.366C439.688 14.646 439.345 14.947 439.009 15.269C438.673 15.591 438.225 16.109 437.665 16.823C437.119 17.537 436.636 18.293 436.216 19.091C435.796 19.889 435.397 20.904 435.019 22.136C434.655 23.354 434.41 24.642 434.284 26H432.163C432.247 24.922 432.415 23.879 432.667 22.871C432.919 21.849 433.213 20.96 433.549 20.204C433.885 19.448 434.242 18.741 434.62 18.083C435.012 17.411 435.39 16.851 435.754 16.403C436.132 15.941 436.468 15.549 436.762 15.227C437.07 14.905 437.315 14.667 437.497 14.513L437.77 14.282H430.105V12.392H440.038ZM446.766 19.679L445.758 17.978L449.769 14.282H443.259V12.392H452.499V14.24L448.614 17.831C449.72 17.831 450.693 18.195 451.533 18.923C452.387 19.651 452.814 20.666 452.814 21.968C452.814 23.172 452.373 24.201 451.491 25.055C450.609 25.909 449.405 26.336 447.879 26.336C446.381 26.336 445.177 25.923 444.267 25.097C443.371 24.257 442.888 23.242 442.818 22.052L444.834 21.59C444.876 22.472 445.177 23.186 445.737 23.732C446.311 24.264 447.018 24.53 447.858 24.53C448.754 24.53 449.454 24.292 449.958 23.816C450.476 23.326 450.735 22.724 450.735 22.01C450.735 21.184 450.462 20.554 449.916 20.12C449.37 19.686 448.719 19.469 447.963 19.469C447.557 19.469 447.158 19.539 446.766 19.679ZM458.694 14.366C458.386 14.674 458.232 15.066 458.232 15.542C458.232 16.018 458.386 16.417 458.694 16.739C459.002 17.047 459.387 17.201 459.849 17.201C460.311 17.201 460.696 17.047 461.004 16.739C461.312 16.417 461.466 16.018 461.466 15.542C461.466 15.066 461.312 14.674 461.004 14.366C460.696 14.058 460.311 13.904 459.849 13.904C459.387 13.904 459.002 14.058 458.694 14.366ZM456.489 15.542C456.489 14.632 456.818 13.855 457.476 13.211C458.148 12.567 458.939 12.245 459.849 12.245C460.759 12.245 461.55 12.567 462.222 13.211C462.894 13.855 463.23 14.632 463.23 15.542C463.23 16.466 462.894 17.25 462.222 17.894C461.55 18.538 460.759 18.86 459.849 18.86C458.939 18.86 458.148 18.538 457.476 17.894C456.818 17.25 456.489 16.466 456.489 15.542ZM467.01 21.674C466.702 21.982 466.548 22.374 466.548 22.85C466.548 23.326 466.702 23.725 467.01 24.047C467.318 24.355 467.703 24.509 468.165 24.509C468.627 24.509 469.012 24.355 469.32 24.047C469.628 23.725 469.782 23.326 469.782 22.85C469.782 22.374 469.628 21.982 469.32 21.674C469.012 21.366 468.627 21.212 468.165 21.212C467.703 21.212 467.318 21.366 467.01 21.674ZM464.805 22.85C464.805 21.94 465.134 21.163 465.792 20.519C466.464 19.875 467.255 19.553 468.165 19.553C469.075 19.553 469.866 19.875 470.538 20.519C471.21 21.163 471.546 21.94 471.546 22.85C471.546 23.774 471.21 24.558 470.538 25.202C469.866 25.846 469.075 26.168 468.165 26.168C467.255 26.168 466.464 25.846 465.792 25.202C465.134 24.558 464.805 23.774 464.805 22.85ZM460.101 26H458.169L467.955 12.392H469.845L460.101 26Z" fill="white"/>
<circle cx="397.5" cy="18.5" r="18.5" fill="white"/>
</svg>
