<svg width="552" height="22" viewBox="0 0 552 22" fill="none" xmlns="http://www.w3.org/2000/svg">
<rect opacity="0.32" y="4" width="552" height="13" rx="6.5" fill="white"/>
<rect y="4" width="494" height="13" rx="6.5" fill="#63CF6C"/>
<path d="M517.684 13.724L518.068 12.752C518.476 13 518.948 13.124 519.484 13.124C520.372 13.124 521.036 12.872 521.476 12.368C521.924 11.856 522.16 11.188 522.184 10.364C522.032 10.644 521.78 10.88 521.428 11.072C521.084 11.264 520.664 11.36 520.168 11.36C519.448 11.36 518.82 11.128 518.284 10.664C517.748 10.192 517.48 9.548 517.48 8.732C517.48 7.948 517.76 7.304 518.32 6.8C518.888 6.296 519.564 6.044 520.348 6.044C521.18 6.044 521.892 6.348 522.484 6.956C523.076 7.564 523.372 8.452 523.372 9.62C523.372 11.076 523.044 12.2 522.388 12.992C521.74 13.784 520.772 14.18 519.484 14.18C519.18 14.18 518.852 14.136 518.5 14.048C518.148 13.96 517.876 13.852 517.684 13.724ZM522.028 8.708C522.028 8.228 521.86 7.836 521.524 7.532C521.188 7.228 520.796 7.076 520.348 7.076C519.892 7.076 519.496 7.228 519.16 7.532C518.832 7.828 518.668 8.22 518.668 8.708C518.668 9.212 518.832 9.612 519.16 9.908C519.488 10.204 519.884 10.352 520.348 10.352C520.804 10.352 521.196 10.204 521.524 9.908C521.86 9.604 522.028 9.204 522.028 8.708ZM531.294 6.476L530.934 7.436C530.55 7.212 530.086 7.1 529.542 7.1C528.75 7.1 528.106 7.36 527.61 7.88C527.122 8.4 526.854 9.068 526.806 9.884C526.982 9.596 527.246 9.356 527.598 9.164C527.958 8.972 528.378 8.876 528.858 8.876C529.65 8.876 530.29 9.112 530.778 9.584C531.274 10.056 531.522 10.704 531.522 11.528C531.522 12.336 531.242 12.98 530.682 13.46C530.122 13.94 529.442 14.18 528.642 14.18C527.81 14.18 527.094 13.88 526.494 13.28C525.902 12.672 525.606 11.772 525.606 10.58C525.606 9.172 525.982 8.064 526.734 7.256C527.486 6.448 528.446 6.044 529.614 6.044C530.326 6.044 530.886 6.188 531.294 6.476ZM526.974 11.528C526.974 12.016 527.142 12.412 527.478 12.716C527.814 13.012 528.206 13.16 528.654 13.16C529.126 13.16 529.522 13.012 529.842 12.716C530.17 12.42 530.334 12.024 530.334 11.528C530.334 11.024 530.17 10.624 529.842 10.328C529.522 10.032 529.126 9.884 528.654 9.884C528.182 9.884 527.782 10.032 527.454 10.328C527.134 10.624 526.974 11.024 526.974 11.528ZM534.955 7.352C534.779 7.528 534.691 7.752 534.691 8.024C534.691 8.296 534.779 8.524 534.955 8.708C535.131 8.884 535.351 8.972 535.615 8.972C535.879 8.972 536.099 8.884 536.275 8.708C536.451 8.524 536.539 8.296 536.539 8.024C536.539 7.752 536.451 7.528 536.275 7.352C536.099 7.176 535.879 7.088 535.615 7.088C535.351 7.088 535.131 7.176 534.955 7.352ZM533.695 8.024C533.695 7.504 533.883 7.06 534.259 6.692C534.643 6.324 535.095 6.14 535.615 6.14C536.135 6.14 536.587 6.324 536.971 6.692C537.355 7.06 537.547 7.504 537.547 8.024C537.547 8.552 537.355 9 536.971 9.368C536.587 9.736 536.135 9.92 535.615 9.92C535.095 9.92 534.643 9.736 534.259 9.368C533.883 9 533.695 8.552 533.695 8.024ZM539.707 11.528C539.531 11.704 539.443 11.928 539.443 12.2C539.443 12.472 539.531 12.7 539.707 12.884C539.883 13.06 540.103 13.148 540.367 13.148C540.631 13.148 540.851 13.06 541.027 12.884C541.203 12.7 541.291 12.472 541.291 12.2C541.291 11.928 541.203 11.704 541.027 11.528C540.851 11.352 540.631 11.264 540.367 11.264C540.103 11.264 539.883 11.352 539.707 11.528ZM538.447 12.2C538.447 11.68 538.635 11.236 539.011 10.868C539.395 10.5 539.847 10.316 540.367 10.316C540.887 10.316 541.339 10.5 541.723 10.868C542.107 11.236 542.299 11.68 542.299 12.2C542.299 12.728 542.107 13.176 541.723 13.544C541.339 13.912 540.887 14.096 540.367 14.096C539.847 14.096 539.395 13.912 539.011 13.544C538.635 13.176 538.447 12.728 538.447 12.2ZM535.759 14H534.655L540.247 6.224H541.327L535.759 14Z" fill="white"/>
<circle cx="498" cy="11" r="11" fill="white"/>
</svg>
